<svg xmlns="http://www.w3.org/2000/svg" xmlns:xlink="http://www.w3.org/1999/xlink" width="375" height="340" viewBox="0 0 375 340">
  <defs>
    <clipPath id="clip-path">
      <rect id="Rectangle_8072" data-name="Rectangle 8072" width="375" height="340" transform="translate(7704 -16159)" fill="#fff"/>
    </clipPath>
    <clipPath id="clip-path-2">
      <path id="sound-wave" d="M0,92.438a149.33,149.33,0,0,1,71.6,3.123,137.088,137.088,0,0,1,30.177,12.785c8.639,5.173,15.976,12.3,26.272,15.323,9.7,2.83,19.29.878,28.284-2.635,16.686-6.539,33.017-14.542,51.6-8.1,16.8,5.758,27.692,19.617,39.29,30.548,10.177,9.565,22.84,18.446,38.935,19.129,30.177,1.366,46.745-23.131,65.68-38.356,21.3-17.08,50.887-31.232,81.419-24.888,3.787.781,7.574,1.952,10.532,4.1V-48.75H0V92.438Z" transform="translate(5740.129 -14837.704)" fill="#3a3a3a" opacity="0.06"/>
    </clipPath>
  </defs>
  <g id="Mask_Group_455" data-name="Mask Group 455" transform="translate(-7704 16159)" clip-path="url(#clip-path)">
    <rect id="Rectangle_8070" data-name="Rectangle 8070" width="375" height="319.848" transform="translate(7703.783 -16138.887)" fill="#fff"/>
    <g id="Mask_Group_453" data-name="Mask Group 453" transform="translate(1894.871 -1387)" clip-path="url(#clip-path-2)">
      <rect id="Rectangle_8071" data-name="Rectangle 8071" width="375" height="319.848" transform="translate(5808.912 -14771.886)" fill="#f3f3f3"/>
    </g>
  </g>
</svg>
